<?xml version="1.0" encoding="iso-8859-1"?>
<!-- Generator: Adobe Illustrator 16.0.4, SVG Export Plug-In . SVG Version: 6.00 Build 0)  -->
<!DOCTYPE svg PUBLIC "-//W3C//DTD SVG 1.1//EN" "http://www.w3.org/Graphics/SVG/1.1/DTD/svg11.dtd">
<svg version="1.1" id="Layer_1" xmlns="http://www.w3.org/2000/svg" xmlns:xlink="http://www.w3.org/1999/xlink" x="0px" y="0px"
	 width="80px" height="80px" viewBox="0 0 80 80" style="enable-background:new 0 0 80 80;" xml:space="preserve">
<g>
	<path style="opacity:0.35;" d="M63.446,29.24c-0.809-8.141-3.086-12.254-3.086-12.254c-0.023-0.008-0.045-0.012-0.068-0.02
		c0-0.041-0.018-0.082-0.074-0.123c-0.19-0.143-1.476-1.666-6.57-3.334c-1.16-0.379-3.852-1.604-4.992-2.164
		c0.189-0.574,0.246-1.307-0.09-1.488c-0.467-0.252-1.447-2.027-1.617-2.338c-0.9-1.652-1.941-1.689-2.731-1.652
		c-0.792,0.035-3.597,0.178-5.07,0.178s-2.911-0.107-5.572-0.037c-2.661,0.074-2.947,1.691-3.164,2.123
		C30.194,8.562,29.403,9.892,29.045,10c-0.36,0.109-0.254,0.395-0.182,1.15c0.005,0.053,0.021,0.117,0.042,0.191
		c-0.569,0.309-2.962,1.59-4.588,2.217c-1.857,0.713-7.444,3.111-6.856,4.094c0,0-5.493,22.875-5.286,31.758
		c0.033,1.385,2.429,17.283,3.143,17.76c0.715,0.477,2.714,1.906,4.904,0.285c0.722-0.533,1.156-1.145,1.407-1.75
		c-0.193,2.553-0.439,4.891-0.752,6.836c-0.121,0.752-0.615,1.521-0.227,1.752c1.048,0.619,12.999,1.494,15.617,1.592
		c2.619,0.094,9.618-0.43,12.808-0.715c3.19-0.285,8.396-0.752,8.856-0.906c0.726-0.242,0.061-1.301,0.014-1.777
		c-0.027-0.26-1.5-16.338-1.666-31.145c1.65,10.963,4.699,31.971,4.699,31.971c3.053,0.928,7.095,0,7.095,0
		S64.256,37.382,63.446,29.24z M21.806,63.093c-0.035-0.137-0.072-0.256-0.107-0.352c-0.142-0.379-1.381-10.447-1.302-14.979
		c0.044-2.543,0.915-5.758,1.846-8.625C22.317,45.351,22.29,54.955,21.806,63.093z"/>
	<path style="fill:#808080;stroke:#000000;stroke-width:0.624;stroke-miterlimit:10;" d="M62.115,15.232
		c0,0,2.277,4.111,3.087,12.254c0.809,8.143,4.627,44.072,4.627,44.072s-4.043,0.928-7.094,0c0,0-5.436-37.443-5.723-38.443
		c-0.285-1-0.943-9.646-0.943-9.646S58.354,13.851,62.115,15.232z"/>
	<path style="fill:#808080;stroke:#000000;stroke-width:0.624;stroke-miterlimit:10;" d="M19.216,15.898
		c0,0-5.493,22.873-5.285,31.758c0.032,1.383,2.429,17.283,3.143,17.76c0.714,0.477,2.714,1.904,4.904,0.285
		c2.191-1.619,1.762-3.951,1.477-4.713c-0.143-0.381-1.381-10.447-1.302-14.98c0.097-5.508,4.068-14.197,4.135-15.586
		C26.43,27.47,22.644,14.517,19.216,15.898z"/>
	<path style="fill:#FFFFFF;stroke:#000000;stroke-width:0.624;stroke-miterlimit:10;" d="M30.786,9.517c0,0-2.856,1.572-4.713,2.287
		c-1.857,0.713-7.445,3.111-6.857,4.094c2.777,4.643,3.947,9.395,4.619,15.045c0.146,1.227,0.72,27.893-1.202,39.844
		c-0.121,0.752-0.615,1.521-0.227,1.75c1.048,0.619,12.999,1.496,15.617,1.592c2.619,0.096,9.618-0.43,12.808-0.715
		c3.19-0.285,8.396-0.75,8.856-0.904c0.726-0.242,0.06-1.303,0.013-1.779c-0.031-0.309-2.143-23.33-1.59-39.662
		c0.293-8.689,3.332-15.229,3.481-15.359c0.429-0.383,0.571-0.477,0.38-0.621c-0.189-0.143-1.475-1.666-6.57-3.332
		c-1.207-0.395-4.094-1.715-5.141-2.238c-1.049-0.523-1.763-3.285-6.143-3.379C39.737,6.042,33.928,5.47,33.071,7.375
		C32.215,9.279,31.262,9.232,30.786,9.517z"/>
	<path style="fill:#808080;stroke:#000000;stroke-width:0.624;stroke-miterlimit:10;" d="M16.978,64.605c0,0-0.25-1.32,0.857-2.748
		s2.536-2.107,3.5-1.785c0.964,0.32,1.786,1.178,1.964,1.855c0.179,0.68,0.393,3.107-1.713,4
		C19.478,66.82,17.014,65.785,16.978,64.605z"/>
	<path style="fill:#FFFFFF;" d="M35.03,10.359c0,0-4.419-5.146,0.365-5.449c4.783-0.305,12.715-1.395,12.352,1.453
		c-0.363,2.844-3.814,3.754-4.783,6.66c-0.97,2.906-2.785,3.512-3.512,1.574S38.543,10.296,35.03,10.359z"/>
	<path style="fill:#FFFFFF;stroke:#000000;stroke-width:0.624;stroke-miterlimit:10;" d="M36.905,10.445
		c0,0,0.647,0.863,0.576,1.654c-0.072,0.791,0.144,2.014,0.646,2.516c0.504,0.504,2.157,3.596,2.302,4.891
		c0.144,1.295,1.007-4.529,1.007-4.529s-0.72-0.936-1.079-1.439c-0.358-0.502-0.72-0.934-0.934-1.58
		c-0.217-0.648-0.289-1.223-1.152-1.367C37.408,10.445,36.905,10.445,36.905,10.445z"/>
	<path style="fill:#FFFFFF;stroke:#000000;stroke-width:0.624;stroke-miterlimit:10;" d="M43.665,10.876c0,0-1.008,0.432-1.224,1.08
		c-0.216,0.646-0.79,2.301-1.294,3.02s-1.078,2.229-1.008,3.09c0.072,0.865,0,5.18,0,5.18h3.021c0,0-0.216-5.969,0.145-6.832
		c0.359-0.861,0.83-2.525,0.759-3.422c-0.108-1.357,0.503-2.445,0.503-2.445L43.665,10.876z"/>
	<path style="fill:#FFFFFF;stroke:#000000;stroke-width:0.624;stroke-linejoin:round;stroke-miterlimit:10;" d="M43.069,11.216
		c0,0,2.11-1.137,2.793-2.467c0.684-1.33,2.664-3.523-0.754-3.523c-1.582,0-2.445,0.215-4.135,0.215
		c-1.582,0-4.781-0.037-5.717-0.07c-0.934-0.037-2.731,0.789,0.792,4.42c0.336,0.348,0.754,0.611,0.754,0.611s-0.79-0.791-1.51,0
		c-0.718,0.793-1.869,3.129-2.587,2.912c0,0-2.015-3.164-2.087-3.918c-0.072-0.756-0.178-1.041,0.182-1.15
		c0.358-0.107,1.15-1.439,1.366-1.871c0.216-0.43,0.502-2.047,3.163-2.121c2.661-0.072,4.098,0.037,5.573,0.037
		c1.473,0,4.278-0.145,5.07-0.18c0.789-0.035,1.832,0,2.73,1.652c0.17,0.312,1.15,2.088,1.618,2.338
		c0.468,0.254,0.181,1.582-0.179,2.049c-0.359,0.469-1.475,2.445-1.689,2.734c-0.217,0.285-0.359,0.896-0.577,0.754
		c-0.214-0.143-1.257-0.863-1.689-1.834c-0.431-0.971-0.833-1.955-1.696-1.344S43.157,11.171,43.069,11.216z"/>
	
		<line style="fill:none;stroke:#9D9D9C;stroke-width:0.6239;stroke-linecap:round;stroke-miterlimit:10;" x1="40.878" y1="21.943" x2="42.386" y2="21.943"/>
	<path style="fill:none;stroke:#5F5E5E;stroke-width:0.6239;stroke-linecap:round;stroke-miterlimit:10;" d="M63.264,69.853
		c0.164,0.055,1.974,0.822,5.593,0.164"/>
	<path style="fill:none;stroke:#5F5E5E;stroke-width:0.6239;stroke-linecap:round;stroke-miterlimit:10;" d="M17.095,60.916
		c0,0,1.097-2.084,3.509-2.139c1.217-0.027,1.81,0.713,1.81,0.713"/>
	<path style="fill:none;stroke:#9D9D9C;stroke-width:0.6239;stroke-linecap:round;stroke-miterlimit:10;" d="M23.755,70.681
		c0,0,10.542,1.83,16.026,1.83c5.482,0,18.62-1.83,18.62-1.83"/>
	
		<line style="fill:none;stroke:#9D9D9C;stroke-width:0.6239;stroke-linecap:round;stroke-miterlimit:10;" x1="20.677" y1="15.57" x2="30.767" y2="12.207"/>
	
		<line style="fill:none;stroke:#9D9D9C;stroke-width:0.6239;stroke-linecap:round;stroke-miterlimit:10;" x1="60.157" y1="15.57" x2="50.067" y2="12.207"/>
</g>
<rect y="0" style="fill:none;" width="80" height="80"/>
<g>
</g>
<g>
</g>
<g>
</g>
<g>
</g>
<g>
</g>
<g>
</g>
<g>
</g>
<g>
</g>
<g>
</g>
<g>
</g>
<g>
</g>
<g>
</g>
<g>
</g>
<g>
</g>
<g>
</g>
</svg>
