<?xml version="1.0" encoding="iso-8859-1"?>
<!-- Generator: Adobe Illustrator 16.0.4, SVG Export Plug-In . SVG Version: 6.00 Build 0)  -->
<!DOCTYPE svg PUBLIC "-//W3C//DTD SVG 1.1//EN" "http://www.w3.org/Graphics/SVG/1.1/DTD/svg11.dtd">
<svg version="1.1" id="Layer_1" xmlns="http://www.w3.org/2000/svg" xmlns:xlink="http://www.w3.org/1999/xlink" x="0px" y="0px"
	 width="80px" height="80px" viewBox="0 0 80 80" style="enable-background:new 0 0 80 80;" xml:space="preserve">
<g>
	<path style="opacity:0.35;" d="M66.701,31.069c-0.143-0.323-6.142-13.892-6.142-13.892c-0.064-0.026-0.129-0.039-0.193-0.056
		c0.109-0.119,0.126-0.194,0.014-0.278c-0.19-0.144-1.476-1.667-6.57-3.333c-1.16-0.379-3.852-1.604-4.992-2.165
		c0.189-0.574,0.246-1.308-0.09-1.49c-0.468-0.251-1.448-2.026-1.617-2.337c-0.9-1.653-1.941-1.689-2.732-1.653
		c-0.791,0.035-3.596,0.179-5.071,0.179c-1.473,0-2.91-0.109-5.572-0.037C31.074,6.083,30.788,7.7,30.572,8.13
		c-0.216,0.432-1.008,1.762-1.366,1.87c-0.36,0.109-0.254,0.395-0.182,1.15c0.005,0.052,0.021,0.118,0.042,0.19
		c-0.569,0.309-2.961,1.592-4.588,2.218c-1.771,0.681-6.923,2.891-6.886,3.947c-0.746,1.686-5.918,13.383-6.049,13.683
		c-0.512,1.169,2.448,8.574,7.604,8.992c0.427,0.035,1.958-2.988,3.169-5.684c0.18,6.365,0.386,27.706-1.277,38.045
		c-0.121,0.752-0.615,1.521-0.227,1.75c1.048,0.62,12.999,1.496,15.618,1.592c2.619,0.096,9.618-0.429,12.808-0.714
		s8.396-0.751,8.856-0.905c0.726-0.242,0.06-1.302,0.013-1.778c-0.03-0.294-1.919-20.913-1.655-36.967
		c1.094,2.34,2.277,4.572,2.646,4.543C64.251,39.643,67.212,32.239,66.701,31.069z"/>
	<path style="fill:#FFFFFF;stroke:#000000;stroke-width:0.624;stroke-miterlimit:10;" d="M19.439,15.542c0,0-6,13.569-6.141,13.892
		c-0.511,1.169,2.449,8.575,7.604,8.993c0.732,0.059,4.711-8.872,4.752-9.724C25.798,25.75,22.868,14.161,19.439,15.542z"/>
	<path style="fill:none;stroke:#9D9D9C;stroke-width:0.6239;stroke-linecap:round;stroke-miterlimit:10;" d="M20.631,36.964
		c0,0-4.533-1.315-6.288-7.75"/>
	<path style="fill:#FFFFFF;stroke:#000000;stroke-width:0.624;stroke-miterlimit:10;" d="M62.315,15.423
		c0,0,5.999,13.569,6.14,13.892c0.512,1.169-2.449,8.575-7.603,8.993c-0.732,0.059-4.711-8.872-4.752-9.724
		C55.957,25.63,58.886,14.042,62.315,15.423z"/>
	<path style="fill:#FFFFFF;stroke:#000000;stroke-width:0.624;stroke-miterlimit:10;" d="M30.947,9.518c0,0-2.856,1.571-4.713,2.286
		c-1.857,0.713-7.444,3.112-6.857,4.094c2.777,4.643,3.947,9.395,4.619,15.046c0.146,1.226,0.72,27.892-1.202,39.841
		c-0.121,0.753-0.615,1.521-0.227,1.752c1.048,0.619,12.999,1.496,15.617,1.592c2.619,0.096,9.62-0.43,12.809-0.715
		s8.395-0.75,8.855-0.904c0.727-0.244,0.061-1.303,0.014-1.779c-0.032-0.31-2.143-23.33-1.59-39.662
		c0.293-8.69,3.332-15.229,3.481-15.361c0.429-0.381,0.571-0.477,0.38-0.62c-0.189-0.143-1.475-1.667-6.57-3.333
		c-1.207-0.395-4.094-1.714-5.142-2.238s-1.763-3.285-6.142-3.38c-4.381-0.096-10.19-0.667-11.047,1.237
		C32.376,9.28,31.423,9.233,30.947,9.518z"/>
	<path style="fill:#FFFFFF;" d="M35.191,10.358c0,0-4.419-5.146,0.365-5.449c4.783-0.303,12.715-1.393,12.352,1.453
		c-0.363,2.845-3.813,3.754-4.782,6.661c-0.97,2.906-2.787,3.512-3.513,1.574C38.886,12.66,38.704,10.298,35.191,10.358z"/>
	<path style="fill:#FFFFFF;stroke:#000000;stroke-width:0.624;stroke-miterlimit:10;" d="M37.066,10.446
		c0,0,0.646,0.862,0.575,1.653s0.144,2.013,0.646,2.516c0.504,0.504,2.158,3.596,2.302,4.89c0.144,1.294,1.008-4.53,1.008-4.53
		s-0.72-0.935-1.08-1.438s-0.721-0.935-0.935-1.582c-0.216-0.648-0.288-1.223-1.151-1.367C37.57,10.446,37.066,10.446,37.066,10.446
		z"/>
	<path style="fill:#FFFFFF;stroke:#000000;stroke-width:0.624;stroke-miterlimit:10;" d="M43.827,10.876
		c0,0-1.008,0.433-1.225,1.081c-0.215,0.647-0.789,2.3-1.293,3.019c-0.504,0.72-1.079,2.229-1.008,3.091
		c0.072,0.865,0,5.178,0,5.178h3.022c0,0-0.217-5.967,0.144-6.831c0.36-0.862,0.831-2.525,0.759-3.422
		c-0.107-1.356,0.504-2.445,0.504-2.445L43.827,10.876z"/>
	<path style="fill:#FFFFFF;stroke:#000000;stroke-width:0.624;stroke-linejoin:round;stroke-miterlimit:10;" d="M43.23,11.217
		c0,0,2.11-1.137,2.793-2.468c0.684-1.331,2.665-3.524-0.754-3.524c-1.581,0-2.445,0.216-4.135,0.216
		c-1.582,0-4.781-0.037-5.717-0.071c-0.934-0.037-2.731,0.79,0.792,4.421c0.336,0.348,0.754,0.611,0.754,0.611s-0.789-0.791-1.509,0
		c-0.718,0.792-1.87,3.128-2.587,2.913c0,0-2.015-3.164-2.087-3.92c-0.072-0.755-0.178-1.041,0.182-1.149
		c0.358-0.108,1.15-1.439,1.366-1.871c0.216-0.43,0.502-2.047,3.163-2.121c2.661-0.072,4.099,0.037,5.574,0.037
		c1.473,0,4.277-0.144,5.07-0.179c0.789-0.036,1.831,0,2.73,1.653c0.17,0.311,1.15,2.086,1.617,2.337
		c0.469,0.252,0.181,1.583-0.178,2.049c-0.359,0.467-1.475,2.444-1.689,2.733c-0.218,0.286-0.359,0.898-0.577,0.754
		c-0.214-0.143-1.258-0.863-1.69-1.833c-0.43-0.971-0.832-1.954-1.695-1.343C43.787,11.072,43.319,11.172,43.23,11.217z"/>
	
		<line style="fill:none;stroke:#9D9D9C;stroke-width:0.6239;stroke-linecap:round;stroke-miterlimit:10;" x1="41.055" y1="21.944" x2="42.563" y2="21.944"/>
	<path style="fill:none;stroke:#9D9D9C;stroke-width:0.6239;stroke-linecap:round;stroke-miterlimit:10;" d="M23.932,70.68
		c0,0,10.543,1.832,16.027,1.832c5.483,0,18.62-1.832,18.62-1.832"/>
	<path style="fill:none;stroke:#9D9D9C;stroke-width:0.6239;stroke-linecap:round;stroke-miterlimit:10;" d="M61.123,36.845
		c0,0,4.533-1.315,6.287-7.75"/>
	
		<line style="fill:none;stroke:#9D9D9C;stroke-width:0.6239;stroke-linecap:round;stroke-miterlimit:10;" x1="20.838" y1="15.569" x2="30.928" y2="12.207"/>
	
		<line style="fill:none;stroke:#9D9D9C;stroke-width:0.6239;stroke-linecap:round;stroke-miterlimit:10;" x1="60.319" y1="15.569" x2="50.229" y2="12.207"/>
</g>
<rect y="0" style="fill:none;" width="80" height="80"/>
<g>
</g>
<g>
</g>
<g>
</g>
<g>
</g>
<g>
</g>
<g>
</g>
<g>
</g>
<g>
</g>
<g>
</g>
<g>
</g>
<g>
</g>
<g>
</g>
<g>
</g>
<g>
</g>
<g>
</g>
</svg>
