<?xml version="1.0" encoding="iso-8859-1"?>
<!-- Generator: Adobe Illustrator 16.0.4, SVG Export Plug-In . SVG Version: 6.00 Build 0)  -->
<!DOCTYPE svg PUBLIC "-//W3C//DTD SVG 1.1//EN" "http://www.w3.org/Graphics/SVG/1.1/DTD/svg11.dtd">
<svg version="1.1" id="Layer_1" xmlns="http://www.w3.org/2000/svg" xmlns:xlink="http://www.w3.org/1999/xlink" x="0px" y="0px"
	 width="80px" height="80px" viewBox="0 0 80 80" style="enable-background:new 0 0 80 80;" xml:space="preserve">
<g>
	<path style="fill:#FFFFFF;" d="M77.49,24.897c-3.895-1.582-9.219-4.039-11.486-5.174c-2.955-1.475-4.971-9.266-17.326-9.533
		c-12.357-0.27-28.742-1.885-31.158,3.49c-2.418,5.371-5.104,5.24-6.447,6.043c0,0-4.189,2.303-8.49,4.346v53.476h74.902
		L77.49,24.897z"/>
	<path style="fill:none;stroke:#000000;stroke-width:0.624;stroke-miterlimit:10;" d="M77.49,24.897
		c-3.895-1.582-9.219-4.039-11.486-5.174c-2.955-1.475-4.971-9.266-17.326-9.533c-12.357-0.27-28.742-1.885-31.158,3.49
		c-2.418,5.371-5.104,5.24-6.447,6.043c0,0-4.236,2.33-8.562,4.379"/>
	<path style="fill:#FFFFFF;" d="M23.044,22.097c0,0-12.467-14.516,1.029-15.371c13.488-0.855,35.865-3.928,34.84,4.1
		c-1.025,8.023-10.76,10.59-13.49,18.789c-2.736,8.195-7.861,9.902-9.908,4.436C33.464,28.589,32.953,21.923,23.044,22.097z"/>
	<path style="fill:#FFFFFF;stroke:#000000;stroke-width:0.624;stroke-linejoin:round;stroke-miterlimit:10;" d="M28.332,22.343
		c0,0,1.826,2.432,1.625,4.664c-0.203,2.229,0.404,5.68,1.822,7.096c1.42,1.422,6.084,10.146,6.49,13.794
		c0.406,3.65,2.842-12.779,2.842-12.779s-2.029-2.635-3.045-4.057c-1.01-1.416-2.029-2.633-2.635-4.461
		c-0.607-1.826-0.811-3.445-3.248-3.852C29.753,22.343,28.332,22.343,28.332,22.343z"/>
	<path style="fill:#FFFFFF;stroke:#000000;stroke-width:0.624;stroke-linejoin:round;stroke-miterlimit:10;" d="M47.4,23.556
		c0,0-2.842,1.219-3.451,3.045c-0.609,1.828-2.229,6.492-3.65,8.518c-1.42,2.029-3.039,6.288-2.842,8.718
		c0.203,2.441,0,14.607,0,14.607h8.521c0,0-0.607-16.829,0.406-19.265c1.016-2.432,2.344-7.125,2.143-9.658
		c-0.307-3.822,1.42-6.896,1.42-6.896L47.4,23.556z"/>
	<path style="fill:#808080;stroke:#000000;stroke-width:0.624;stroke-linejoin:round;stroke-miterlimit:10;" d="M45.718,24.519
		c0,0,5.953-3.211,7.879-6.961c1.928-3.754,7.516-9.941-2.127-9.941c-4.463,0-6.896,0.609-11.664,0.609
		c-4.461,0-13.484-0.104-16.125-0.199c-2.633-0.105-7.703,2.229,2.232,12.471c0.949,0.98,2.129,1.721,2.129,1.721
		s-2.229-2.229-4.26,0c-2.025,2.238-4.279,6.271-5.893,6.574c0,0-5.684-8.924-5.887-11.055c-0.203-2.133-0.344-2.316,0.373-3.098
		c1.205-1.316,1.977-2.564,2.586-3.781c0.609-1.213,1.416-5.775,8.922-5.982c7.506-0.203,11.562,0.105,15.719,0.105
		c4.158,0,12.068-0.406,14.301-0.508c2.23-0.102,5.168,0,7.707,4.664c0.479,0.875,2.357,3.32,2.85,4.736
		c0.807,2.318,0.305,5.535-0.705,6.854c-1.016,1.316-3.125,6.441-3.73,7.258c-0.613,0.807-1.805,2.625-2.42,2.219
		c-0.602-0.406-1.877-1.293-3.096-4.027c-1.213-2.74-2.35-5.516-4.785-3.789C47.289,24.106,45.968,24.388,45.718,24.519z"/>
	
		<line style="fill:none;stroke:#5F5E5E;stroke-width:0.6239;stroke-linecap:round;stroke-miterlimit:10;" x1="39.583" y1="54.774" x2="43.837" y2="54.774"/>
	
		<line style="fill:none;stroke:#9D9D9C;stroke-width:0.6239;stroke-linecap:round;stroke-miterlimit:10;" x1="4.205" y1="29.579" x2="11.017" y2="27.308"/>
	
		<line style="fill:none;stroke:#9D9D9C;stroke-width:0.6239;stroke-linecap:round;stroke-miterlimit:10;" x1="75.884" y1="30.782" x2="65.46" y2="27.308"/>
	<circle style="fill:#FFFFFF;stroke:#000000;stroke-width:0.624;stroke-miterlimit:10;" cx="41.912" cy="40.405" r="1.551"/>
	
		<ellipse transform="matrix(0.9521 -0.3058 0.3058 0.9521 -6.6282 11.2864)" style="fill:#FFFFFF;stroke:#000000;stroke-width:0.624;stroke-miterlimit:10;" cx="32.708" cy="26.798" rx="1.156" ry="1.475"/>
</g>
<rect y="0" style="fill:none;" width="80" height="80"/>
<g>
</g>
<g>
</g>
<g>
</g>
<g>
</g>
<g>
</g>
<g>
</g>
<g>
</g>
<g>
</g>
<g>
</g>
<g>
</g>
<g>
</g>
<g>
</g>
<g>
</g>
<g>
</g>
<g>
</g>
</svg>
