<?xml version="1.0" encoding="iso-8859-1"?>
<!-- Generator: Adobe Illustrator 16.0.4, SVG Export Plug-In . SVG Version: 6.00 Build 0)  -->
<!DOCTYPE svg PUBLIC "-//W3C//DTD SVG 1.1//EN" "http://www.w3.org/Graphics/SVG/1.1/DTD/svg11.dtd">
<svg version="1.1" id="Layer_1" xmlns="http://www.w3.org/2000/svg" xmlns:xlink="http://www.w3.org/1999/xlink" x="0px" y="0px"
	 width="80px" height="80px" viewBox="0 0 80 80" style="enable-background:new 0 0 80 80;" xml:space="preserve">
<g>
	<path style="fill:#FFFFFF;" d="M77.49,24.898c-3.895-1.583-9.219-4.04-11.486-5.175c-2.955-1.474-4.971-9.266-17.326-9.532
		C36.32,9.921,19.936,8.306,17.52,13.682c-2.418,5.37-5.104,5.239-6.447,6.042c0,0-4.189,2.304-8.49,4.345v53.477h74.902
		L77.49,24.898z"/>
	<path style="fill:none;stroke:#000000;stroke-width:0.624;stroke-miterlimit:10;" d="M77.49,24.898
		c-3.895-1.583-9.219-4.04-11.486-5.175c-2.955-1.474-4.971-9.266-17.326-9.532C36.32,9.921,19.936,8.306,17.52,13.682
		c-2.418,5.37-5.104,5.239-6.447,6.042c0,0-4.236,2.331-8.562,4.38"/>
	<path style="fill:#FFFFFF;" d="M23.045,22.096c0,0-12.467-14.515,1.029-15.371c13.488-0.855,35.865-3.929,34.839,4.1
		c-1.025,8.023-10.76,10.59-13.49,18.788c-2.736,8.196-7.861,9.903-9.908,4.436C33.465,28.588,32.953,21.922,23.045,22.096z"/>
	<path style="fill:#FFFFFF;stroke:#000000;stroke-width:0.624;stroke-linejoin:round;stroke-miterlimit:10;" d="M28.332,22.343
		c0,0,1.826,2.431,1.625,4.665c-0.203,2.227,0.404,5.679,1.822,7.094c1.42,1.422,6.084,10.146,6.49,13.795
		c0.406,3.65,2.841-12.779,2.841-12.779s-2.029-2.634-3.044-4.056c-1.01-1.416-2.029-2.634-2.635-4.461
		c-0.607-1.827-0.811-3.447-3.248-3.852C29.754,22.343,28.332,22.343,28.332,22.343z"/>
	<path style="fill:#FFFFFF;stroke:#000000;stroke-width:0.624;stroke-linejoin:round;stroke-miterlimit:10;" d="M47.4,23.556
		c0,0-2.842,1.218-3.451,3.045s-2.229,6.492-3.65,8.517c-1.42,2.03-3.039,6.288-2.842,8.719c0.203,2.441,0,14.607,0,14.607h8.521
		c0,0-0.607-16.83,0.406-19.266c1.016-2.431,2.344-7.125,2.143-9.658c-0.307-3.823,1.42-6.897,1.42-6.897L47.4,23.556z"/>
	<path style="fill:#808080;stroke:#000000;stroke-width:0.624;stroke-linejoin:round;stroke-miterlimit:10;" d="M45.718,24.519
		c0,0,5.953-3.21,7.879-6.961c1.928-3.755,7.516-9.942-2.127-9.942c-4.463,0-6.896,0.609-11.664,0.609
		c-4.461,0-13.484-0.102-16.125-0.198c-2.633-0.106-7.703,2.228,2.232,12.47c0.949,0.981,2.129,1.721,2.129,1.721
		s-2.229-2.229-4.26,0c-2.025,2.238-5.273,8.826-7.299,8.217c0,0-5.684-8.923-5.887-11.055c-0.203-2.131-0.502-2.938,0.514-3.243
		c1.01-0.305,3.242-4.061,3.852-5.279c0.609-1.213,1.416-5.776,8.922-5.983c7.506-0.203,11.562,0.106,15.719,0.106
		c4.158,0,12.068-0.406,14.3-0.508c2.23-0.101,5.168,0,7.707,4.665c0.479,0.875,3.242,5.883,4.562,6.592
		c1.318,0.711,0.506,4.462-0.504,5.781c-1.014,1.315-4.16,6.894-4.766,7.709c-0.613,0.807-1.014,2.534-1.629,2.127
		c-0.604-0.407-3.547-2.436-4.766-5.172c-1.213-2.74-2.35-5.516-4.785-3.789C47.289,24.107,45.968,24.388,45.718,24.519z"/>
	
		<line style="fill:none;stroke:#5F5E5E;stroke-width:0.6239;stroke-linecap:round;stroke-miterlimit:10;" x1="39.584" y1="54.775" x2="43.837" y2="54.775"/>
	
		<line style="fill:none;stroke:#9D9D9C;stroke-width:0.6239;stroke-linecap:round;stroke-miterlimit:10;" x1="4.205" y1="29.579" x2="11.018" y2="27.307"/>
	
		<line style="fill:none;stroke:#9D9D9C;stroke-width:0.6239;stroke-linecap:round;stroke-miterlimit:10;" x1="75.884" y1="30.782" x2="65.46" y2="27.307"/>
	<circle style="fill:#FFFFFF;stroke:#000000;stroke-width:0.624;stroke-miterlimit:10;" cx="41.912" cy="40.406" r="1.551"/>
	
		<ellipse transform="matrix(0.9519 -0.3064 0.3064 0.9519 -6.6375 11.3103)" style="fill:#FFFFFF;stroke:#000000;stroke-width:0.624;stroke-miterlimit:10;" cx="32.708" cy="26.798" rx="1.156" ry="1.475"/>
</g>
<rect y="0" style="fill:none;" width="80" height="80"/>
<g>
</g>
<g>
</g>
<g>
</g>
<g>
</g>
<g>
</g>
<g>
</g>
<g>
</g>
<g>
</g>
<g>
</g>
<g>
</g>
<g>
</g>
<g>
</g>
<g>
</g>
<g>
</g>
<g>
</g>
</svg>
