<?xml version="1.0" encoding="iso-8859-1"?>
<!-- Generator: Adobe Illustrator 16.0.4, SVG Export Plug-In . SVG Version: 6.00 Build 0)  -->
<!DOCTYPE svg PUBLIC "-//W3C//DTD SVG 1.1//EN" "http://www.w3.org/Graphics/SVG/1.1/DTD/svg11.dtd">
<svg version="1.1" id="Layer_1" xmlns="http://www.w3.org/2000/svg" xmlns:xlink="http://www.w3.org/1999/xlink" x="0px" y="0px"
	 width="80px" height="80px" viewBox="0 0 80 80" style="enable-background:new 0 0 80 80;" xml:space="preserve">
<g>
	<path style="fill:#FFFFFF;" d="M77.489,23.898c-3.893-1.583-9.219-4.04-11.484-5.175c-2.955-1.474-4.971-9.266-17.326-9.532
		c-12.357-0.271-28.742-1.885-31.158,3.49c-2.418,5.37-5.104,5.24-6.447,6.042c0,0-4.189,2.304-8.49,4.346v53.478h74.902
		L77.489,23.898z"/>
	<path style="fill:none;stroke:#000000;stroke-width:0.624;stroke-miterlimit:10;" d="M77.489,23.898
		c-3.893-1.583-9.219-4.04-11.484-5.175c-2.955-1.474-4.971-9.266-17.326-9.532c-12.357-0.271-28.742-1.885-31.158,3.49
		c-2.418,5.37-5.104,5.24-6.447,6.042c0,0-4.236,2.331-8.562,4.38"/>
	<path style="fill:#FFFFFF;" d="M23.045,21.096c0,0-12.467-14.515,1.029-15.371c13.488-0.855,35.863-3.929,34.84,4.1
		c-1.025,8.023-10.762,10.59-13.492,18.788c-2.734,8.197-7.859,9.903-9.908,4.436C33.465,27.588,32.954,20.922,23.045,21.096z"/>
	<path style="fill:#FFFFFF;stroke:#000000;stroke-width:0.624;stroke-linejoin:round;stroke-miterlimit:10;" d="M28.333,21.343
		c0,0,1.826,2.432,1.623,4.665c-0.203,2.227,0.406,5.679,1.822,7.094c1.422,1.422,6.086,10.146,6.492,13.796
		s2.842-12.78,2.842-12.78s-2.031-2.634-3.045-4.056c-1.012-1.416-2.031-2.634-2.635-4.461c-0.609-1.827-0.812-3.447-3.248-3.852
		C29.752,21.343,28.333,21.343,28.333,21.343z"/>
	<path style="fill:#FFFFFF;stroke:#000000;stroke-width:0.624;stroke-linejoin:round;stroke-miterlimit:10;" d="M47.399,22.556
		c0,0-2.842,1.218-3.449,3.045c-0.609,1.827-2.229,6.492-3.65,8.517c-1.42,2.029-3.039,6.287-2.842,8.719
		c0.203,2.441,0,14.607,0,14.607h8.521c0,0-0.609-16.831,0.406-19.266c1.014-2.432,2.344-7.125,2.141-9.658
		c-0.305-3.823,1.422-6.897,1.422-6.897L47.399,22.556z"/>
	<path style="fill:#808080;stroke:#000000;stroke-width:0.624;stroke-linejoin:round;stroke-miterlimit:10;" d="M45.717,23.519
		c0,0,5.955-3.21,7.879-6.961c1.93-3.755,7.516-9.942-2.125-9.942c-4.463,0-6.898,0.609-11.664,0.609
		c-4.463,0-13.486-0.102-16.125-0.198c-2.635-0.106-7.705,2.228,2.232,12.47c0.947,0.981,2.127,1.721,2.127,1.721
		s-2.229-2.229-4.258,0c-2.025,2.238-5.273,8.826-7.299,8.217c0,0-5.684-8.923-5.887-11.055c-0.203-2.131-0.502-2.938,0.512-3.243
		c1.012-0.305,3.244-4.061,3.854-5.278c0.609-1.213,1.416-5.776,8.922-5.983c7.506-0.203,11.562,0.106,15.719,0.106
		s12.068-0.406,14.301-0.508c2.23-0.101,5.168,0,7.707,4.665c0.477,0.875,3.242,5.883,4.562,6.592
		c1.318,0.711,0.506,4.462-0.504,5.781c-1.014,1.315-4.162,6.894-4.766,7.709c-0.613,0.807-1.016,2.534-1.629,2.127
		c-0.604-0.406-3.547-2.436-4.766-5.172c-1.213-2.74-2.35-5.515-4.785-3.789C47.29,23.107,45.969,23.388,45.717,23.519z"/>
	
		<line style="fill:none;stroke:#5F5E5E;stroke-width:0.6239;stroke-linecap:round;stroke-miterlimit:10;" x1="39.584" y1="53.775" x2="43.838" y2="53.775"/>
	
		<line style="fill:none;stroke:#9D9D9C;stroke-width:0.6239;stroke-linecap:round;stroke-miterlimit:10;" x1="4.204" y1="28.579" x2="11.018" y2="26.307"/>
	
		<line style="fill:none;stroke:#9D9D9C;stroke-width:0.6239;stroke-linecap:round;stroke-miterlimit:10;" x1="75.885" y1="29.782" x2="65.461" y2="26.307"/>
	<circle style="fill:#FFFFFF;stroke:#000000;stroke-width:0.624;stroke-miterlimit:10;" cx="41.912" cy="39.405" r="1.552"/>
	<path style="fill:#FFFFFF;stroke:#000000;stroke-width:0.624;stroke-miterlimit:10;" d="M33.809,25.443
		c0.248,0.775-0.041,1.562-0.65,1.758c-0.607,0.196-1.303-0.274-1.551-1.049c-0.252-0.777,0.039-1.563,0.646-1.759
		C32.864,24.197,33.559,24.667,33.809,25.443z"/>
</g>
<rect y="0" style="fill:none;" width="80" height="80"/>
<g>
</g>
<g>
</g>
<g>
</g>
<g>
</g>
<g>
</g>
<g>
</g>
<g>
</g>
<g>
</g>
<g>
</g>
<g>
</g>
<g>
</g>
<g>
</g>
<g>
</g>
<g>
</g>
<g>
</g>
</svg>
