<?xml version="1.0" encoding="iso-8859-1"?>
<!-- Generator: Adobe Illustrator 16.0.4, SVG Export Plug-In . SVG Version: 6.00 Build 0)  -->
<!DOCTYPE svg PUBLIC "-//W3C//DTD SVG 1.1//EN" "http://www.w3.org/Graphics/SVG/1.1/DTD/svg11.dtd">
<svg version="1.1" id="Layer_1" xmlns="http://www.w3.org/2000/svg" xmlns:xlink="http://www.w3.org/1999/xlink" x="0px" y="0px"
	 width="80px" height="80px" viewBox="0 0 80 80" style="enable-background:new 0 0 80 80;" xml:space="preserve">
<g>
	<path style="fill:#FFFFFF;stroke:#000000;stroke-width:0.624;stroke-miterlimit:10;" d="M44.005,1.738
		c2.838,6.419,15.607,35.296,15.945,36.069c1.375,3.14-6.58,23.04-20.432,24.163c-1.967,0.156-12.658-23.84-12.77-26.129
		C26.453,29.698,31.107,9.637,37.5,2.624"/>
	<path style="fill:#808080;stroke:#000000;stroke-width:0.624;stroke-miterlimit:10;" d="M58.076,33.81
		c0.738,1.671,1.814,3.857,1.875,3.997c1.375,3.14-6.58,23.04-20.432,24.163c-0.424,0.033-1.258-1.06-2.303-2.818
		c0,0,5.926-1.012,11.209-6.114C54.859,46.824,58.076,33.81,58.076,33.81z"/>
	<path style="fill:#FFFFFF;" d="M32.634,77.822c-0.34-12.209-0.426-24.119-0.049-35.3c0.691-20.412,7.018-36.405,8.865-40.346H2.218
		L2,77.749L32.634,77.822z"/>
	<path style="fill:none;stroke:#000000;stroke-width:0.624;stroke-miterlimit:10;" d="M32.634,78.261
		c-0.34-12.209-0.426-24.559-0.049-35.739c0.691-20.412,7.018-36.405,8.865-40.346"/>
</g>
<rect y="0" style="fill:none;" width="80" height="80"/>
<g>
</g>
<g>
</g>
<g>
</g>
<g>
</g>
<g>
</g>
<g>
</g>
<g>
</g>
<g>
</g>
<g>
</g>
<g>
</g>
<g>
</g>
<g>
</g>
<g>
</g>
<g>
</g>
<g>
</g>
</svg>
