<?xml version="1.0" encoding="iso-8859-1"?>
<!-- Generator: Adobe Illustrator 16.0.4, SVG Export Plug-In . SVG Version: 6.00 Build 0)  -->
<!DOCTYPE svg PUBLIC "-//W3C//DTD SVG 1.1//EN" "http://www.w3.org/Graphics/SVG/1.1/DTD/svg11.dtd">
<svg version="1.1" id="Layer_1" xmlns="http://www.w3.org/2000/svg" xmlns:xlink="http://www.w3.org/1999/xlink" x="0px" y="0px"
	 width="80px" height="80px" viewBox="0 0 80 80" style="enable-background:new 0 0 80 80;" xml:space="preserve">
<g>
	<path style="opacity:0.35;" d="M63.845,27.244c-0.232-0.355-7.893-16.514-7.893-16.514c-0.201-0.074-0.398-0.098-0.592-0.096
		c-0.309-0.279-0.791-0.531-1.496-0.773C51.24,8.962,48.47,8.304,45.99,8.304c-0.695,0-1.404,0.018-2.122,0.051
		c0.07-0.115,0.125-0.219,0.157-0.303c0.473-1.262-1.104-1.42-2.129-3.312c0,0-6.268-1.371-11.985,0.709
		c-2.603,0.947-3.785,3.076-3.785,3.076s-0.238,1.016-0.697,2c-1.13,0.264-2.557,0.836-4.279,1.99c0,0-0.032,0.096-0.086,0.273
		c-0.198-0.006-0.399,0.023-0.604,0.105c0,0-6.513,14.707-6.665,15.057c-0.455,1.035,1.608,6.59,5.43,8.83
		c-0.031,5.006,0,10.848,0.294,16.104c0.465,8.32-0.873,17.086-0.873,17.086s0.732,0.502,2.379,1.119
		c-0.081,1.859-0.193,4.434-0.193,4.434s11.939,3.367,24.36,1.215c11.436-1.98,11.088-2.641,11.088-2.641l-0.176-0.295
		c-0.244-1.064-1.178-5.357-1.418-9.732c0,0-1.75-17.965-2.111-29.467c1.064,1.943,2.084,3.604,2.432,3.742
		C59.988,40.326,66.066,30.634,63.845,27.244z M28.413,9.708c0.412,0.092,0.812,0.326,1.131,0.637
		c-0.653,0.139-1.027,0.227-1.027,0.227s-0.303-0.146-0.885-0.217c0.156-0.178,0.311-0.365,0.465-0.568
		c0.04-0.055,0.065-0.096,0.103-0.146C28.274,9.666,28.35,9.695,28.413,9.708z"/>
	<path style="fill:#808080;stroke:#000000;stroke-width:0.624;stroke-miterlimit:10;" d="M22.857,67.464
		c0,0.135-0.271,6.303-0.271,6.303s11.939,3.369,24.36,1.217c11.436-1.982,11.088-2.641,11.088-2.641l-2.18-3.67l-2.83-9
		L22.857,67.464z"/>
	<path style="fill:#FFFFFF;stroke:#000000;stroke-width:0.624;stroke-miterlimit:10;" d="M22.214,11.14
		c0,0-6.513,14.705-6.665,15.057c-0.556,1.266,2.649,9.297,8.238,9.752c0.794,0.064,4.604-8.355,4.65-9.281
		C28.593,23.468,25.932,9.644,22.214,11.14z"/>
	<path style="fill:none;stroke:#9D9D9C;stroke-width:0.6239;stroke-linecap:round;stroke-miterlimit:10;" d="M24.039,35.066
		c0,0-5.258-1.529-7.288-8.992"/>
	<path style="fill:#FFFFFF;stroke:#000000;stroke-width:0.624;stroke-linejoin:round;stroke-miterlimit:10;" d="M22.904,10.759
		c0,0-1.834,5.379-1.834,14.553c0,4.889-0.328,16.322,0.204,25.816c0.466,8.322-0.873,17.088-0.873,17.088s3.195,2.213,11.493,3.096
		c5.227,0.557,11.979-0.213,17.225-1.072c1.303-0.213,1.461-6.598,2.533-6.803c1.303-0.25,6.268,8.869,6.268,8.869
		s-1.201-4.945-1.479-9.99c0,0-2.826-29.006-2.037-36.902c-1.715-12.84,6.844-15.381,1.215-17.307
		c-2.623-0.898-5.395-1.559-7.875-1.559c-7.795,0-17.472,2.27-17.472,2.27S27.723,7.531,22.904,10.759z"/>
	<path style="fill:#FFFFFF;stroke:#000000;stroke-width:0.624;stroke-linejoin:round;stroke-miterlimit:10;" d="M27.88,6.769
		c0,0-0.788,3.393-2.286,3.785c-1.498,0.395,1.656,0.947,4.257-2.521C32.453,4.562,28.669,6.14,27.88,6.769z"/>
	<path style="fill:#FFFFFF;" d="M43.65,2.986c0,0-6.268-1.371-11.985,0.709c-2.602,0.947-3.785,3.074-3.785,3.074
		s1.578,1.027,2.288,1.184c0.709,0.158,1.418,0.709,1.655,1.42c0.238,0.709,0.237,3.549,0.867,4.416
		C33.32,14.656,44.71,13.355,43.65,2.986z"/>
	<path style="fill:#FFFFFF;stroke:#000000;stroke-width:0.624;stroke-linejoin:round;stroke-miterlimit:10;" d="M43.65,2.986
		c0,0-7.175,2.996-8.042,3.549c-0.868,0.551,3.864,3.074,4.179,4.65c0.315,1.578,5.519-3.627,5.992-4.887
		C46.251,5.037,44.675,4.876,43.65,2.986z"/>
	<path style="fill:#FFFFFF;stroke:#000000;stroke-width:0.624;stroke-linejoin:round;stroke-miterlimit:10;" d="M28.038,7.085
		c0,0,1.892,0.787,2.602,0.947c0.709,0.156,1.104,0.787,1.262,1.812c0.159,1.025,0.158,2.998,0.63,3.629
		c0.474,0.629,1.814,2.68,1.814,2.68l-0.474,2.129c0,0-2.364-2.207-2.995-3.549c-0.63-1.34-0.395-3.391-1.026-4.572
		C29.221,8.978,29.378,7.875,28.038,7.085z"/>
	<path style="fill:#FFFFFF;stroke:#000000;stroke-width:0.624;stroke-linejoin:round;stroke-miterlimit:10;" d="M35.662,6.537
		c0,0-1.869,1.889-1.869,2.441s-0.552,2.918-0.709,3.707c-0.158,0.789-0.788,3.785-0.788,4.572c0,0.789-0.079,4.178-0.079,4.178
		h2.208c0,0-0.158-3.705-0.079-5.045c0.079-1.342,0.473-2.996,0.394-4.021s0.71-3.074,0.71-3.785
		C35.45,7.875,35.189,6.929,35.662,6.537z"/>
	<path style="fill:none;stroke:#000000;stroke-width:0.624;stroke-linejoin:round;stroke-miterlimit:10;" d="M43.65,2.986
		c0,0-4.357-1.082-10.049,0.152s-5.566,3.549-5.832,3.783"/>
	<path style="fill:#FFFFFF;stroke:#000000;stroke-width:0.624;stroke-miterlimit:10;" d="M57.708,8.976
		c0,0,7.658,16.158,7.891,16.514c2.223,3.391-3.855,13.08-8.838,11.102c-0.822-0.328-5.385-9.135-5.465-10.162
		C51.019,22.878,53.531,7.435,57.708,8.976z"/>
	<path style="fill:#DADADA;" d="M56.748,36.238c0,0-0.852-1.021-0.91-2.426c-0.141-3.332,1.572-8.803,9.689-7.971
		C67.132,29.224,61.341,38.169,56.748,36.238z"/>
	<path style="fill:none;stroke:#000000;stroke-width:0.624;stroke-miterlimit:10;" d="M56.687,36.417c0,0-0.938-1.275-0.85-3.008
		c0.18-3.58,2.385-8.93,9.805-7.709"/>
	<path style="fill:none;stroke:#9D9D9C;stroke-width:0.6239;stroke-linecap:round;stroke-miterlimit:10;" d="M54.707,31.466
		c0.086-0.26,0.287-5.129,4.695-6.783c3.479-1.303,4.783-0.348,4.783-0.348"/>
</g>
<rect y="0" style="fill:none;" width="80" height="80"/>
<g>
</g>
<g>
</g>
<g>
</g>
<g>
</g>
<g>
</g>
<g>
</g>
<g>
</g>
<g>
</g>
<g>
</g>
<g>
</g>
<g>
</g>
<g>
</g>
<g>
</g>
<g>
</g>
<g>
</g>
</svg>
