<?xml version="1.0" encoding="iso-8859-1"?>
<!-- Generator: Adobe Illustrator 16.0.4, SVG Export Plug-In . SVG Version: 6.00 Build 0)  -->
<!DOCTYPE svg PUBLIC "-//W3C//DTD SVG 1.1//EN" "http://www.w3.org/Graphics/SVG/1.1/DTD/svg11.dtd">
<svg version="1.1" id="Layer_1" xmlns="http://www.w3.org/2000/svg" xmlns:xlink="http://www.w3.org/1999/xlink" x="0px" y="0px"
	 width="80px" height="80px" viewBox="0 0 80 80" style="enable-background:new 0 0 80 80;" xml:space="preserve">
<g>
	<path style="opacity:0.35;" d="M63.943,29.345c-0.232-0.355-7.893-16.513-7.893-16.513c-0.201-0.075-0.398-0.098-0.592-0.097
		c-0.309-0.28-0.791-0.532-1.496-0.773c-2.625-0.899-5.395-1.558-7.875-1.558c-0.695,0-1.404,0.019-2.122,0.052
		c0.07-0.116,0.125-0.219,0.157-0.303c0.473-1.261-1.104-1.42-2.129-3.312c0,0-6.268-1.371-11.985,0.71
		c-2.603,0.947-3.785,3.075-3.785,3.075s-0.238,1.015-0.697,1.999c-1.13,0.265-2.557,0.837-4.279,1.991c0,0-0.032,0.096-0.086,0.274
		c-0.198-0.006-0.399,0.022-0.604,0.104c0,0-6.513,14.707-6.665,15.057c-0.455,1.036,1.608,6.59,5.43,8.831
		c-0.031,5.004,0,10.848,0.294,16.103c0.465,8.321-0.873,17.087-0.873,17.087s3.195,2.213,11.493,3.096
		c9.984,1.062,25.526-2.709,25.526-2.709s-0.701-1.242-0.979-6.287c0,0-1.75-17.965-2.111-29.468
		c1.064,1.943,2.084,3.604,2.432,3.743C60.085,42.426,66.164,32.735,63.943,29.345z M27.729,12.457
		c0.156-0.177,0.311-0.365,0.465-0.569c0.04-0.053,0.065-0.095,0.103-0.147c0.075,0.026,0.151,0.055,0.214,0.068
		c0.412,0.092,0.812,0.326,1.131,0.638c-0.654,0.14-1.028,0.227-1.028,0.227S28.311,12.526,27.729,12.457z"/>
	<path style="fill:#FFFFFF;stroke:#000000;stroke-width:0.624;stroke-miterlimit:10;" d="M22.312,13.24
		c0,0-6.513,14.707-6.665,15.057c-0.556,1.267,2.649,9.298,8.238,9.752c0.794,0.066,4.604-8.355,4.65-9.28
		C28.691,25.568,26.029,11.745,22.312,13.24z"/>
	<path style="fill:none;stroke:#9D9D9C;stroke-width:0.6239;stroke-linecap:round;stroke-miterlimit:10;" d="M24.136,37.166
		c0,0-5.258-1.529-7.288-8.992"/>
	<path style="fill:#808080;stroke:#000000;stroke-width:0.624;stroke-miterlimit:10;" d="M20.785,70.546
		c0,0,5.203,3.555,21.331,3.555c4.245,0,13.335-0.74,14.323-3.898c1.166-3.736-3.055-15.746-3.262-17.131l-8.986,2.176
		L20.785,70.546z"/>
	<path style="fill:#FFFFFF;stroke:#000000;stroke-width:0.624;stroke-linejoin:round;stroke-miterlimit:10;" d="M23.001,12.861
		c0,0-1.834,5.378-1.834,14.552c0,4.889-0.328,16.323,0.204,25.817c0.466,8.32-0.873,17.086-0.873,17.086s3.195,2.213,11.493,3.098
		c9.984,1.062,25.527-2.709,25.527-2.709s-0.703-1.242-0.98-6.287c0,0-2.826-29.005-2.037-36.903
		c-1.715-12.84,6.844-15.38,1.215-17.307c-2.623-0.898-5.395-1.558-7.875-1.558c-7.795,0-17.472,2.27-17.472,2.27
		S27.82,9.632,23.001,12.861z"/>
	<path style="fill:#FFFFFF;stroke:#000000;stroke-width:0.624;stroke-linejoin:round;stroke-miterlimit:10;" d="M27.978,8.871
		c0,0-0.788,3.391-2.286,3.785s1.656,0.946,4.257-2.523C32.551,6.664,28.767,8.24,27.978,8.871z"/>
	<path style="fill:#FFFFFF;" d="M43.748,5.086c0,0-6.268-1.371-11.985,0.71c-2.602,0.947-3.785,3.075-3.785,3.075
		s1.578,1.025,2.288,1.183s1.418,0.71,1.655,1.419c0.238,0.71,0.237,3.548,0.867,4.415C33.418,16.756,44.808,15.457,43.748,5.086z"
		/>
	<path style="fill:#FFFFFF;stroke:#000000;stroke-width:0.624;stroke-linejoin:round;stroke-miterlimit:10;" d="M43.748,5.086
		c0,0-7.175,2.997-8.042,3.549c-0.868,0.552,3.864,3.074,4.179,4.652c0.315,1.578,5.519-3.627,5.992-4.889
		C46.349,7.137,44.773,6.978,43.748,5.086z"/>
	<path style="fill:#FFFFFF;stroke:#000000;stroke-width:0.624;stroke-linejoin:round;stroke-miterlimit:10;" d="M28.135,9.187
		c0,0,1.892,0.787,2.602,0.946c0.709,0.158,1.104,0.789,1.262,1.813c0.159,1.025,0.158,2.997,0.63,3.627
		c0.474,0.631,1.814,2.681,1.814,2.681l-0.474,2.129c0,0-2.364-2.208-2.995-3.548c-0.63-1.34-0.395-3.391-1.026-4.573
		C29.318,11.079,29.476,9.975,28.135,9.187z"/>
	<path style="fill:#FFFFFF;stroke:#000000;stroke-width:0.624;stroke-linejoin:round;stroke-miterlimit:10;" d="M35.76,8.637
		c0,0-1.869,1.891-1.869,2.442s-0.552,2.918-0.709,3.706c-0.158,0.789-0.788,3.785-0.788,4.573s-0.079,4.179-0.079,4.179h2.208
		c0,0-0.158-3.706-0.079-5.046c0.079-1.341,0.473-2.996,0.394-4.022c-0.079-1.025,0.71-3.075,0.71-3.784
		C35.548,9.975,35.287,9.031,35.76,8.637z"/>
	<path style="fill:none;stroke:#000000;stroke-width:0.624;stroke-linejoin:round;stroke-miterlimit:10;" d="M43.748,5.086
		c0,0-4.357-1.081-10.049,0.152c-5.692,1.235-5.566,3.549-5.832,3.784"/>
	<path style="fill:#FFFFFF;stroke:#000000;stroke-width:0.624;stroke-miterlimit:10;" d="M57.806,11.077
		c0,0,7.658,16.157,7.891,16.513c2.223,3.39-3.855,13.081-8.838,11.101c-0.822-0.328-5.385-9.135-5.465-10.162
		C51.117,24.979,53.628,9.536,57.806,11.077z"/>
	<path style="fill:#DADADA;" d="M56.845,38.338c0,0-0.852-1.021-0.91-2.426c-0.141-3.332,1.572-8.802,9.689-7.97
		C67.23,31.325,61.439,40.271,56.845,38.338z"/>
	<path style="fill:none;stroke:#000000;stroke-width:0.624;stroke-miterlimit:10;" d="M56.785,38.517c0,0-0.938-1.274-0.85-3.007
		c0.18-3.58,2.385-8.929,9.805-7.709"/>
	<path style="fill:none;stroke:#9D9D9C;stroke-width:0.6239;stroke-linecap:round;stroke-miterlimit:10;" d="M54.804,33.568
		c0.086-0.261,0.287-5.13,4.695-6.784c3.479-1.304,4.783-0.347,4.783-0.347"/>
</g>
<rect y="0" style="fill:none;" width="80" height="80"/>
<g>
</g>
<g>
</g>
<g>
</g>
<g>
</g>
<g>
</g>
<g>
</g>
<g>
</g>
<g>
</g>
<g>
</g>
<g>
</g>
<g>
</g>
<g>
</g>
<g>
</g>
<g>
</g>
<g>
</g>
</svg>
