<?xml version="1.0" encoding="iso-8859-1"?>
<!-- Generator: Adobe Illustrator 16.0.4, SVG Export Plug-In . SVG Version: 6.00 Build 0)  -->
<!DOCTYPE svg PUBLIC "-//W3C//DTD SVG 1.1//EN" "http://www.w3.org/Graphics/SVG/1.1/DTD/svg11.dtd">
<svg version="1.1" id="Layer_1" xmlns="http://www.w3.org/2000/svg" xmlns:xlink="http://www.w3.org/1999/xlink" x="0px" y="0px"
	 width="80px" height="80px" viewBox="0 0 80 80" style="enable-background:new 0 0 80 80;" xml:space="preserve">
<g>
	<path style="fill:#FFFFFF;" d="M77.49,24.898c-3.894-1.583-9.219-4.04-11.485-5.175c-2.955-1.474-4.971-9.266-17.326-9.532
		c-12.356-0.27-28.741-1.885-31.159,3.491c-2.416,5.37-5.104,5.239-6.447,6.042c0,0-4.189,2.304-8.49,4.345v53.477h74.903
		L77.49,24.898z"/>
	<path style="fill:none;stroke:#000000;stroke-width:0.624;stroke-miterlimit:10;" d="M77.49,24.898
		c-3.894-1.583-9.219-4.04-11.485-5.175c-2.955-1.474-4.971-9.266-17.326-9.532c-12.356-0.27-28.741-1.885-31.159,3.491
		c-2.416,5.37-5.104,5.239-6.447,6.042c0,0-4.236,2.331-8.562,4.379"/>
	<path style="fill:#FFFFFF;" d="M23.044,22.097c0,0-12.466-14.515,1.029-15.371c13.49-0.855,35.865-3.929,34.84,4.1
		c-1.024,8.023-10.759,10.59-13.489,18.788c-2.736,8.196-7.86,9.903-9.909,4.436C33.465,28.588,32.954,21.923,23.044,22.097z"/>
	<path style="fill:#808080;stroke:#000000;stroke-width:0.624;stroke-miterlimit:10;" d="M27.977,22.136
		c0,0,2.842,1.822,2.639,4.056c-0.203,2.227,0.405,5.678,1.822,7.094c1.421,1.422,6.086,10.146,6.49,13.794
		c0.407,3.649,1.129-10.709,1.129-10.709s-1.814-2.926-2.829-4.348c-1.011-1.416-2.03-2.634-2.635-4.461
		c-0.609-1.827-0.812-3.447-3.248-3.852C28.914,23.304,27.977,22.136,27.977,22.136z"/>
	<path style="fill:#808080;stroke:#000000;stroke-width:0.624;stroke-miterlimit:10;" d="M47.401,23.557
		c0,0-2.843,1.218-3.451,3.045c-0.609,1.827-2.229,6.492-3.649,8.517c-1.421,2.03-3.04,6.288-2.842,8.718
		c0.202,2.441,0,14.607,0,14.607h6.389c0,0-0.609-16.829,0.405-19.265c1.016-2.431,2.345-7.125,2.143-9.658
		c-0.306-3.823,3.553-6.897,3.553-6.897L47.401,23.557z"/>
	<path style="fill:#FFFFFF;stroke:#000000;stroke-width:0.624;stroke-linejoin:round;stroke-miterlimit:10;" d="M45.718,24.519
		c0,0,5.955-3.21,7.878-6.961c1.93-3.755,7.517-9.942-2.126-9.942c-4.461,0-6.897,0.609-11.663,0.609
		c-4.462,0-13.485-0.102-16.125-0.198c-2.634-0.106-7.704,2.228,2.233,12.47c0.947,0.981,2.127,1.721,2.127,1.721
		s-2.229-2.229-4.259,0c-2.025,2.238-5.273,8.826-7.299,8.217c0,0-5.684-8.923-5.887-11.055c-0.203-2.131-0.503-2.938,0.513-3.243
		c1.01-0.305,3.243-4.061,3.852-5.279c0.609-1.213,1.417-5.776,8.923-5.983c7.507-0.203,11.562,0.106,15.719,0.106
		s12.069-0.406,14.303-0.508c2.229-0.101,5.166,0,7.705,4.665c0.478,0.875,3.242,5.883,4.562,6.592
		c1.318,0.711,0.506,4.462-0.504,5.781c-1.014,1.315-4.161,6.894-4.766,7.709c-0.613,0.807-1.015,2.533-1.629,2.127
		c-0.604-0.407-3.547-2.437-4.766-5.172c-1.213-2.74-2.35-5.516-4.785-3.789C47.29,24.107,45.969,24.388,45.718,24.519z"/>
	
		<line style="fill:none;stroke:#5F5E5E;stroke-width:0.6239;stroke-linecap:round;stroke-miterlimit:10;" x1="38.875" y1="54.776" x2="42.424" y2="54.776"/>
	
		<line style="fill:none;stroke:#9D9D9C;stroke-width:0.6239;stroke-linecap:round;stroke-miterlimit:10;" x1="4.204" y1="29.579" x2="11.017" y2="27.308"/>
	
		<line style="fill:none;stroke:#9D9D9C;stroke-width:0.6239;stroke-linecap:round;stroke-miterlimit:10;" x1="75.885" y1="30.783" x2="65.461" y2="27.308"/>
	<circle style="fill:#FFFFFF;stroke:#000000;stroke-width:0.624;stroke-miterlimit:10;" cx="40.641" cy="40.899" r="1.551"/>
	
		<ellipse transform="matrix(0.9518 -0.3066 0.3066 0.9518 -6.7941 11.2348)" style="fill:#FFFFFF;stroke:#000000;stroke-width:0.624;stroke-miterlimit:10;" cx="32.366" cy="27.245" rx="1.156" ry="1.475"/>
</g>
<rect y="0" style="fill:none;" width="80" height="80"/>
<g>
</g>
<g>
</g>
<g>
</g>
<g>
</g>
<g>
</g>
<g>
</g>
<g>
</g>
<g>
</g>
<g>
</g>
<g>
</g>
<g>
</g>
<g>
</g>
<g>
</g>
<g>
</g>
<g>
</g>
</svg>
